<svg width="156" height="40" viewBox="0 0 156 40" fill="none" xmlns="http://www.w3.org/2000/svg">
<path fill-rule="evenodd" clip-rule="evenodd" d="M81.4202 30.5212H86.5424V13.1318H81.4202V14.9595H81.369C80.7543 13.8628 79.2176 12.5051 76.4004 12.5051C71.8416 12.5051 67.795 16.1083 67.795 21.8004C67.795 26.7613 70.9708 31.0957 76.4004 31.0957C78.3981 31.0957 80.4982 30.3123 81.369 28.6413H81.4202V30.5212ZM81.4202 21.7999C81.4202 23.4709 80.3445 26.2386 77.1687 26.2386C74.0954 26.2386 72.9173 23.4709 72.9173 21.8521C72.9173 19.8677 74.1978 17.3611 77.1175 17.3611C79.986 17.3611 81.4202 19.7111 81.4202 21.7999Z" fill="#212121"/>
<path d="M99.5528 30.469H94.4306L88.5912 13.0795H93.7135L96.9917 23.9414H97.0429L100.475 13.0795H105.597L99.5528 30.469Z" fill="#212121"/>
<path fill-rule="evenodd" clip-rule="evenodd" d="M119.068 29.4764C120.503 28.4842 121.732 26.9698 122.552 25.0377V24.9855H117.327C116.61 25.8732 115.79 26.6043 114.202 26.6043C112.205 26.6043 110.514 25.4032 110.207 23.3144H123.013C123.016 23.2899 123.019 23.2657 123.023 23.2415C123.07 22.9053 123.115 22.5901 123.115 21.9567C123.115 16.6301 119.273 12.4525 114.1 12.4525C108.875 12.4525 105.136 16.9435 105.136 21.8C105.136 27.0221 109.336 31.043 114.202 31.043C115.944 31.043 117.634 30.5208 119.068 29.4764ZM114.151 16.8909C116.815 16.8909 117.839 18.823 118.044 19.8674H110.258C110.514 18.823 111.488 16.8909 114.151 16.8909Z" fill="#212121"/>
<path d="M131.055 13.0791H135.818V14.9069H135.869C136.279 14.0713 137.201 12.4525 140.121 12.4525V17.6746C137.765 17.7268 136.126 18.249 136.126 20.86V30.4164H131.003V13.0791H131.055Z" fill="#212121"/>
<path d="M150.417 17.9883C150.366 17.6227 150.314 16.6828 148.829 16.6828C147.753 16.6828 147.395 17.3616 147.395 17.8316C147.395 18.7716 148.675 19.2938 150.007 19.7116C152.875 20.5471 156 21.3826 156 25.1425C156 28.7979 152.824 31.0957 149.034 31.0957C146.473 31.0957 142.529 29.8946 142.068 25.2992H147.139C147.343 26.918 148.88 26.918 149.085 26.918C149.956 26.918 150.878 26.3958 150.878 25.5603C150.878 24.2025 149.597 24.0459 146.37 22.7926C144.168 22.0615 142.324 20.5993 142.324 18.2494C142.324 14.8028 145.397 12.5051 148.931 12.5051C151.185 12.5051 155.078 13.3929 155.488 17.9883H150.417Z" fill="#212121"/>
<path d="M63.7995 14.0181C62.8775 13.1825 61.0847 12.5037 59.4456 12.5037C56.4234 12.5037 55.7576 14.1225 55.2453 14.958H55.1941V13.1303H50.4304V30.5198H55.5527V19.919C55.5527 19.1357 55.86 18.4568 56.3722 17.9868C56.4234 17.9346 56.4747 17.8824 56.5259 17.8824C56.5771 17.8302 56.6283 17.778 56.6796 17.778H56.7308C57.1406 17.5169 57.6016 17.3602 58.1138 17.3602C58.7797 17.3602 59.3431 17.6213 59.8041 18.0391C60.3163 18.5091 60.6749 19.1879 60.6749 19.9712V20.6501C60.6749 20.7545 60.6749 20.9112 60.6749 21.0156V30.5198H65.7971V19.6057C65.7971 16.2113 64.7215 14.8014 63.7995 14.0181Z" fill="#212121"/>
<path d="M126.444 30.5206C125.01 30.5206 123.883 29.3717 123.883 27.9095C123.883 26.4474 125.01 25.2985 126.444 25.2985C127.879 25.2985 129.006 26.4474 129.006 27.9095C129.006 29.3195 127.879 30.5206 126.444 30.5206Z" fill="#212121"/>
<path d="M19.1236 30.179L18.6659 40L26.9053 29.2072L27.7699 21.1253L34.5344 14.3222L39.8239 0L25.5829 5.26854L18.7676 12.0716L10.7316 12.9412L0 21.2276L9.76525 20.7673L19.1236 30.179Z" fill="#212121"/>
<path d="M10.2228 24.0916L15.8175 29.7693L7.52716 32.7872L10.2228 24.0916Z" fill="#212121"/>
</svg>
